# 3ds Max Wavefront OBJ Exporter v0.97b - (c)2007 guruware
# 创建的文件:30.09.2013 17:44:04

mtllib disc02.mtl

#
# object disc02
#

v  -38.1000 -0.0000 -0.0000
v  -110.3485 22.4003 -0.0000
v  -101.9487 22.4003 42.2285
v  -35.1998 -0.0000 14.5802
v  -78.0283 22.4003 78.0283
v  -26.9408 -0.0000 26.9408
v  -42.2285 22.4003 101.9487
v  -14.5802 -0.0000 35.1998
v  0.0000 22.4003 110.3485
v  0.0000 -0.0000 38.1000
v  42.2285 22.4003 101.9487
v  14.5802 0.0000 35.1998
v  78.0283 22.4003 78.0283
v  26.9408 0.0000 26.9408
v  101.9487 22.4003 42.2285
v  35.1998 0.0000 14.5802
v  110.3485 22.4003 0.0000
v  38.1000 0.0000 0.0000
v  101.9487 22.4003 -42.2285
v  35.1998 0.0000 -14.5802
v  78.0283 22.4003 -78.0283
v  26.9408 0.0000 -26.9408
v  42.2285 22.4003 -101.9487
v  14.5802 0.0000 -35.1998
v  -0.0000 22.4003 -110.3485
v  -0.0000 0.0000 -38.1000
v  -42.2285 22.4003 -101.9487
v  -14.5802 -0.0000 -35.1998
v  -78.0283 22.4003 -78.0283
v  -26.9408 -0.0000 -26.9408
v  -101.9487 22.4003 -42.2285
v  -35.1998 -0.0000 -14.5802
# 32 vertices

vn 0.2956 0.9535 -0.0588
vn 0.2506 0.9535 -0.1675
vn 0.1675 0.9535 -0.2506
vn 0.0588 0.9535 -0.2956
vn -0.0588 0.9535 -0.2956
vn -0.1675 0.9535 -0.2506
vn -0.2506 0.9535 -0.1675
vn -0.2956 0.9535 -0.0588
vn -0.2956 0.9535 0.0588
vn -0.2506 0.9535 0.1675
vn -0.1675 0.9535 0.2506
vn -0.0588 0.9535 0.2956
vn 0.0588 0.9535 0.2956
vn 0.1675 0.9535 0.2506
vn 0.2506 0.9535 0.1675
vn 0.2956 0.9535 0.0588
# 16 vertex normals

vt 3.0000 0.0000 0.0000
vt 3.0000 1.0000 0.0000
vt 3.2500 1.0000 0.0000
vt 3.2500 0.0000 0.0000
vt 3.5000 1.0000 0.0000
vt 3.5000 0.0000 0.0000
vt 3.7500 1.0000 0.0000
vt 3.7500 0.0000 0.0000
vt 4.0000 1.0000 0.0000
vt 4.0000 0.0000 0.0000
vt 0.0000 0.0000 0.0000
vt 0.0000 1.0000 0.0000
vt 0.2500 1.0000 0.0000
vt 0.2500 0.0000 0.0000
vt 0.5000 1.0000 0.0000
vt 0.5000 0.0000 0.0000
vt 0.7500 1.0000 0.0000
vt 0.7500 0.0000 0.0000
vt 1.0000 1.0000 0.0000
vt 1.0000 0.0000 0.0000
vt 1.2500 1.0000 0.0000
vt 1.2500 0.0000 0.0000
vt 1.5000 1.0000 0.0000
vt 1.5000 0.0000 0.0000
vt 1.7500 1.0000 0.0000
vt 1.7500 0.0000 0.0000
vt 2.0000 1.0000 0.0000
vt 2.0000 0.0000 0.0000
vt 2.2500 1.0000 0.0000
vt 2.2500 0.0000 0.0000
vt 2.5000 1.0000 0.0000
vt 2.5000 0.0000 0.0000
vt 2.7500 1.0000 0.0000
vt 2.7500 0.0000 0.0000
# 34 texture coords

g disc02
usemtl default
s off
f 1/1/1 2/2/1 3/3/1 
f 3/3/1 4/4/1 1/1/1 
f 4/4/2 3/3/2 5/5/2 
f 5/5/2 6/6/2 4/4/2 
f 6/6/3 5/5/3 7/7/3 
f 7/7/3 8/8/3 6/6/3 
f 8/8/4 7/7/4 9/9/4 
f 9/9/4 10/10/4 8/8/4 
f 10/11/5 9/12/5 11/13/5 
f 11/13/5 12/14/5 10/11/5 
f 12/14/6 11/13/6 13/15/6 
f 13/15/6 14/16/6 12/14/6 
f 14/16/7 13/15/7 15/17/7 
f 15/17/7 16/18/7 14/16/7 
f 16/18/8 15/17/8 17/19/8 
f 17/19/8 18/20/8 16/18/8 
f 18/20/9 17/19/9 19/21/9 
f 19/21/9 20/22/9 18/20/9 
f 20/22/10 19/21/10 21/23/10 
f 21/23/10 22/24/10 20/22/10 
f 22/24/11 21/23/11 23/25/11 
f 23/25/11 24/26/11 22/24/11 
f 24/26/12 23/25/12 25/27/12 
f 25/27/12 26/28/12 24/26/12 
f 26/28/13 25/27/13 27/29/13 
f 27/29/13 28/30/13 26/28/13 
f 28/30/14 27/29/14 29/31/14 
f 29/31/14 30/32/14 28/30/14 
f 30/32/15 29/31/15 31/33/15 
f 31/33/15 32/34/15 30/32/15 
f 32/34/16 31/33/16 2/2/16 
f 2/2/16 1/1/16 32/34/16 
# 0 polygons - 32 triangles

